<mxfile host="app.diagrams.net" modified="2024-01-14T19:19:31.111Z" agent="Mozilla/5.0 (Windows NT 10.0; Win64; x64) AppleWebKit/537.36 (KHTML, like Gecko) Chrome/120.0.0.0 Safari/537.36" etag="hNSeGYOMUYcNNrOHUdNB" version="22.1.18" type="google">
  <diagram name="Página-1" id="vHfaZ6Guj1JaPEUL6cC1">
    <mxGraphModel grid="1" page="1" gridSize="10" guides="1" tooltips="1" connect="1" arrows="1" fold="1" pageScale="1" pageWidth="827" pageHeight="1169" math="0" shadow="0">
      <root>
        <mxCell id="0" />
        <mxCell id="1" parent="0" />
        <mxCell id="kwlAMlTlPHPSavqxf0X7-33" style="edgeStyle=orthogonalEdgeStyle;rounded=0;orthogonalLoop=1;jettySize=auto;html=1;entryX=0;entryY=0.5;entryDx=0;entryDy=0;endArrow=none;endFill=0;startArrow=classic;startFill=1;" edge="1" parent="1" source="kwlAMlTlPHPSavqxf0X7-5" target="kwlAMlTlPHPSavqxf0X7-32">
          <mxGeometry relative="1" as="geometry">
            <Array as="points">
              <mxPoint x="260" y="440" />
            </Array>
          </mxGeometry>
        </mxCell>
        <mxCell id="kwlAMlTlPHPSavqxf0X7-5" value="Usuario" style="whiteSpace=wrap;html=1;align=center;" vertex="1" parent="1">
          <mxGeometry x="190" y="280" width="100" height="40" as="geometry" />
        </mxCell>
        <mxCell id="kwlAMlTlPHPSavqxf0X7-18" style="edgeStyle=orthogonalEdgeStyle;rounded=0;orthogonalLoop=1;jettySize=auto;html=1;endArrow=none;endFill=0;" edge="1" parent="1" source="kwlAMlTlPHPSavqxf0X7-6" target="kwlAMlTlPHPSavqxf0X7-5">
          <mxGeometry relative="1" as="geometry" />
        </mxCell>
        <mxCell id="kwlAMlTlPHPSavqxf0X7-43" style="edgeStyle=orthogonalEdgeStyle;rounded=0;orthogonalLoop=1;jettySize=auto;html=1;entryX=0.5;entryY=0;entryDx=0;entryDy=0;endArrow=none;endFill=0;" edge="1" parent="1" source="kwlAMlTlPHPSavqxf0X7-6" target="kwlAMlTlPHPSavqxf0X7-38">
          <mxGeometry relative="1" as="geometry">
            <Array as="points">
              <mxPoint x="570" y="190" />
              <mxPoint x="570" y="280" />
            </Array>
          </mxGeometry>
        </mxCell>
        <mxCell id="kwlAMlTlPHPSavqxf0X7-6" value="nombre" style="ellipse;whiteSpace=wrap;html=1;align=center;fontStyle=4;" vertex="1" parent="1">
          <mxGeometry x="70" y="179" width="100" height="40" as="geometry" />
        </mxCell>
        <mxCell id="kwlAMlTlPHPSavqxf0X7-19" value="" style="edgeStyle=orthogonalEdgeStyle;rounded=0;orthogonalLoop=1;jettySize=auto;html=1;endArrow=none;endFill=0;" edge="1" parent="1" source="kwlAMlTlPHPSavqxf0X7-7" target="kwlAMlTlPHPSavqxf0X7-5">
          <mxGeometry relative="1" as="geometry">
            <Array as="points">
              <mxPoint x="220" y="249" />
            </Array>
          </mxGeometry>
        </mxCell>
        <mxCell id="kwlAMlTlPHPSavqxf0X7-7" value="reputación" style="ellipse;whiteSpace=wrap;html=1;align=center;" vertex="1" parent="1">
          <mxGeometry x="70" y="229" width="100" height="40" as="geometry" />
        </mxCell>
        <mxCell id="kwlAMlTlPHPSavqxf0X7-20" value="" style="edgeStyle=orthogonalEdgeStyle;rounded=0;orthogonalLoop=1;jettySize=auto;html=1;endArrow=none;endFill=0;" edge="1" parent="1" source="kwlAMlTlPHPSavqxf0X7-11" target="kwlAMlTlPHPSavqxf0X7-5">
          <mxGeometry relative="1" as="geometry" />
        </mxCell>
        <mxCell id="kwlAMlTlPHPSavqxf0X7-11" value="correo" style="ellipse;whiteSpace=wrap;html=1;align=center;" vertex="1" parent="1">
          <mxGeometry x="70" y="279" width="100" height="40" as="geometry" />
        </mxCell>
        <mxCell id="kwlAMlTlPHPSavqxf0X7-21" value="" style="edgeStyle=orthogonalEdgeStyle;rounded=0;orthogonalLoop=1;jettySize=auto;html=1;entryX=0;entryY=1;entryDx=0;entryDy=0;endArrow=none;endFill=0;" edge="1" parent="1" target="kwlAMlTlPHPSavqxf0X7-5">
          <mxGeometry relative="1" as="geometry">
            <mxPoint x="175" y="348" as="sourcePoint" />
            <mxPoint x="195" y="330" as="targetPoint" />
          </mxGeometry>
        </mxCell>
        <mxCell id="kwlAMlTlPHPSavqxf0X7-14" value="contraseña" style="ellipse;whiteSpace=wrap;html=1;align=center;" vertex="1" parent="1">
          <mxGeometry x="70" y="328" width="100" height="40" as="geometry" />
        </mxCell>
        <mxCell id="kwlAMlTlPHPSavqxf0X7-23" style="edgeStyle=orthogonalEdgeStyle;rounded=0;orthogonalLoop=1;jettySize=auto;html=1;entryX=0.25;entryY=1;entryDx=0;entryDy=0;endArrow=none;endFill=0;" edge="1" parent="1" source="kwlAMlTlPHPSavqxf0X7-16" target="kwlAMlTlPHPSavqxf0X7-5">
          <mxGeometry relative="1" as="geometry">
            <mxPoint x="260" y="330" as="targetPoint" />
          </mxGeometry>
        </mxCell>
        <mxCell id="kwlAMlTlPHPSavqxf0X7-16" value="género" style="ellipse;whiteSpace=wrap;html=1;align=center;" vertex="1" parent="1">
          <mxGeometry x="70" y="379" width="100" height="40" as="geometry" />
        </mxCell>
        <mxCell id="kwlAMlTlPHPSavqxf0X7-22" style="edgeStyle=orthogonalEdgeStyle;rounded=0;orthogonalLoop=1;jettySize=auto;html=1;endArrow=none;endFill=0;" edge="1" parent="1" source="kwlAMlTlPHPSavqxf0X7-17">
          <mxGeometry relative="1" as="geometry">
            <mxPoint x="230" y="320" as="targetPoint" />
          </mxGeometry>
        </mxCell>
        <mxCell id="kwlAMlTlPHPSavqxf0X7-17" value="foto" style="ellipse;whiteSpace=wrap;html=1;align=center;" vertex="1" parent="1">
          <mxGeometry x="70" y="430" width="100" height="40" as="geometry" />
        </mxCell>
        <mxCell id="kwlAMlTlPHPSavqxf0X7-34" style="edgeStyle=orthogonalEdgeStyle;rounded=0;orthogonalLoop=1;jettySize=auto;html=1;entryX=1;entryY=0.5;entryDx=0;entryDy=0;startArrow=classic;startFill=1;endArrow=none;endFill=0;" edge="1" parent="1" target="kwlAMlTlPHPSavqxf0X7-32">
          <mxGeometry relative="1" as="geometry">
            <mxPoint x="560" y="320" as="sourcePoint" />
            <Array as="points">
              <mxPoint x="560" y="440" />
            </Array>
          </mxGeometry>
        </mxCell>
        <mxCell id="kwlAMlTlPHPSavqxf0X7-27" style="edgeStyle=orthogonalEdgeStyle;rounded=0;orthogonalLoop=1;jettySize=auto;html=1;entryX=0;entryY=0.5;entryDx=0;entryDy=0;" edge="1" parent="1" source="kwlAMlTlPHPSavqxf0X7-25">
          <mxGeometry relative="1" as="geometry">
            <mxPoint x="510" y="300" as="targetPoint" />
          </mxGeometry>
        </mxCell>
        <mxCell id="kwlAMlTlPHPSavqxf0X7-28" style="edgeStyle=orthogonalEdgeStyle;rounded=0;orthogonalLoop=1;jettySize=auto;html=1;entryX=1;entryY=0.5;entryDx=0;entryDy=0;endArrow=none;endFill=0;" edge="1" parent="1" source="kwlAMlTlPHPSavqxf0X7-25" target="kwlAMlTlPHPSavqxf0X7-5">
          <mxGeometry relative="1" as="geometry" />
        </mxCell>
        <mxCell id="kwlAMlTlPHPSavqxf0X7-25" value="Posee" style="shape=rhombus;double=1;perimeter=rhombusPerimeter;whiteSpace=wrap;html=1;align=center;" vertex="1" parent="1">
          <mxGeometry x="350" y="270" width="120" height="60" as="geometry" />
        </mxCell>
        <mxCell id="kwlAMlTlPHPSavqxf0X7-29" value="1:N" style="text;strokeColor=none;fillColor=none;spacingLeft=4;spacingRight=4;overflow=hidden;rotatable=0;points=[[0,0.5],[1,0.5]];portConstraint=eastwest;fontSize=12;whiteSpace=wrap;html=1;" vertex="1" parent="1">
          <mxGeometry x="390" y="240" width="40" height="30" as="geometry" />
        </mxCell>
        <mxCell id="kwlAMlTlPHPSavqxf0X7-30" value="(0,1)" style="text;strokeColor=none;fillColor=none;spacingLeft=4;spacingRight=4;overflow=hidden;rotatable=0;points=[[0,0.5],[1,0.5]];portConstraint=eastwest;fontSize=12;whiteSpace=wrap;html=1;" vertex="1" parent="1">
          <mxGeometry x="290" y="300" width="40" height="30" as="geometry" />
        </mxCell>
        <mxCell id="kwlAMlTlPHPSavqxf0X7-31" value="1:N" style="text;strokeColor=none;fillColor=none;spacingLeft=4;spacingRight=4;overflow=hidden;rotatable=0;points=[[0,0.5],[1,0.5]];portConstraint=eastwest;fontSize=12;whiteSpace=wrap;html=1;" vertex="1" parent="1">
          <mxGeometry x="470" y="310" width="40" height="30" as="geometry" />
        </mxCell>
        <mxCell id="kwlAMlTlPHPSavqxf0X7-32" value="Ver" style="shape=rhombus;double=1;perimeter=rhombusPerimeter;whiteSpace=wrap;html=1;align=center;" vertex="1" parent="1">
          <mxGeometry x="350" y="410" width="120" height="60" as="geometry" />
        </mxCell>
        <mxCell id="kwlAMlTlPHPSavqxf0X7-35" value="1:N" style="text;strokeColor=none;fillColor=none;spacingLeft=4;spacingRight=4;overflow=hidden;rotatable=0;points=[[0,0.5],[1,0.5]];portConstraint=eastwest;fontSize=12;whiteSpace=wrap;html=1;" vertex="1" parent="1">
          <mxGeometry x="560" y="319" width="40" height="30" as="geometry" />
        </mxCell>
        <mxCell id="kwlAMlTlPHPSavqxf0X7-36" value="1:N" style="text;strokeColor=none;fillColor=none;spacingLeft=4;spacingRight=4;overflow=hidden;rotatable=0;points=[[0,0.5],[1,0.5]];portConstraint=eastwest;fontSize=12;whiteSpace=wrap;html=1;" vertex="1" parent="1">
          <mxGeometry x="260" y="328" width="40" height="30" as="geometry" />
        </mxCell>
        <mxCell id="kwlAMlTlPHPSavqxf0X7-37" value="N:M" style="text;strokeColor=none;fillColor=none;spacingLeft=4;spacingRight=4;overflow=hidden;rotatable=0;points=[[0,0.5],[1,0.5]];portConstraint=eastwest;fontSize=12;whiteSpace=wrap;html=1;" vertex="1" parent="1">
          <mxGeometry x="390" y="384" width="40" height="30" as="geometry" />
        </mxCell>
        <mxCell id="kwlAMlTlPHPSavqxf0X7-38" value="Repositorio" style="shape=ext;margin=3;double=1;whiteSpace=wrap;html=1;align=center;" vertex="1" parent="1">
          <mxGeometry x="510" y="280" width="100" height="40" as="geometry" />
        </mxCell>
        <mxCell id="kwlAMlTlPHPSavqxf0X7-40" style="edgeStyle=orthogonalEdgeStyle;rounded=0;orthogonalLoop=1;jettySize=auto;html=1;entryX=0.5;entryY=0;entryDx=0;entryDy=0;endArrow=none;endFill=0;" edge="1" parent="1" source="kwlAMlTlPHPSavqxf0X7-39" target="kwlAMlTlPHPSavqxf0X7-38">
          <mxGeometry relative="1" as="geometry" />
        </mxCell>
        <mxCell id="kwlAMlTlPHPSavqxf0X7-39" value="nombre Repo" style="ellipse;whiteSpace=wrap;html=1;align=center;fontStyle=4;" vertex="1" parent="1">
          <mxGeometry x="510" y="130" width="100" height="40" as="geometry" />
        </mxCell>
        <mxCell id="kwlAMlTlPHPSavqxf0X7-42" style="edgeStyle=orthogonalEdgeStyle;rounded=0;orthogonalLoop=1;jettySize=auto;html=1;entryX=0.5;entryY=1;entryDx=0;entryDy=0;endArrow=none;endFill=0;" edge="1" parent="1" source="kwlAMlTlPHPSavqxf0X7-41" target="kwlAMlTlPHPSavqxf0X7-5">
          <mxGeometry relative="1" as="geometry" />
        </mxCell>
        <mxCell id="kwlAMlTlPHPSavqxf0X7-41" value="Admin" style="ellipse;whiteSpace=wrap;html=1;align=center;" vertex="1" parent="1">
          <mxGeometry x="60" y="500" width="100" height="40" as="geometry" />
        </mxCell>
        <mxCell id="kwlAMlTlPHPSavqxf0X7-50" value="Contenido" style="shape=ext;margin=3;double=1;whiteSpace=wrap;html=1;align=center;" vertex="1" parent="1">
          <mxGeometry x="860" y="280" width="100" height="40" as="geometry" />
        </mxCell>
        <mxCell id="kwlAMlTlPHPSavqxf0X7-60" style="edgeStyle=orthogonalEdgeStyle;rounded=0;orthogonalLoop=1;jettySize=auto;html=1;entryX=0.5;entryY=0;entryDx=0;entryDy=0;endArrow=none;endFill=0;" edge="1" parent="1" source="kwlAMlTlPHPSavqxf0X7-51" target="kwlAMlTlPHPSavqxf0X7-52">
          <mxGeometry relative="1" as="geometry">
            <Array as="points">
              <mxPoint x="830" y="400" />
            </Array>
          </mxGeometry>
        </mxCell>
        <mxCell id="kwlAMlTlPHPSavqxf0X7-61" style="edgeStyle=orthogonalEdgeStyle;rounded=0;orthogonalLoop=1;jettySize=auto;html=1;entryX=0.5;entryY=0;entryDx=0;entryDy=0;endArrow=none;endFill=0;" edge="1" parent="1" source="kwlAMlTlPHPSavqxf0X7-51" target="kwlAMlTlPHPSavqxf0X7-54">
          <mxGeometry relative="1" as="geometry">
            <Array as="points">
              <mxPoint x="990" y="400" />
              <mxPoint x="990" y="490" />
            </Array>
          </mxGeometry>
        </mxCell>
        <mxCell id="kwlAMlTlPHPSavqxf0X7-51" value="" style="triangle;whiteSpace=wrap;html=1;rotation=90;direction=east;" vertex="1" parent="1">
          <mxGeometry x="880" y="359" width="60" height="80" as="geometry" />
        </mxCell>
        <mxCell id="kwlAMlTlPHPSavqxf0X7-52" value="Archivo" style="whiteSpace=wrap;html=1;align=center;" vertex="1" parent="1">
          <mxGeometry x="780" y="490" width="100" height="40" as="geometry" />
        </mxCell>
        <mxCell id="kwlAMlTlPHPSavqxf0X7-54" value="Carpeta" style="whiteSpace=wrap;html=1;align=center;" vertex="1" parent="1">
          <mxGeometry x="940" y="490" width="100" height="40" as="geometry" />
        </mxCell>
        <mxCell id="kwlAMlTlPHPSavqxf0X7-55" value="Preguntar si se pone entidad débil o fuerte en la herencia" style="text;html=1;strokeColor=none;fillColor=none;align=center;verticalAlign=middle;whiteSpace=wrap;rounded=0;" vertex="1" parent="1">
          <mxGeometry x="790" y="349" width="240" height="75" as="geometry" />
        </mxCell>
        <mxCell id="kwlAMlTlPHPSavqxf0X7-56" value="Preguntar: Se van heredando las claves tanto del usuario como del repositorio" style="text;html=1;align=center;verticalAlign=middle;resizable=0;points=[];autosize=1;strokeColor=none;fillColor=none;" vertex="1" parent="1">
          <mxGeometry x="600" y="210" width="440" height="30" as="geometry" />
        </mxCell>
        <mxCell id="kwlAMlTlPHPSavqxf0X7-58" value="" style="endArrow=none;html=1;rounded=0;entryX=0.5;entryY=1;entryDx=0;entryDy=0;exitX=0;exitY=0.5;exitDx=0;exitDy=0;" edge="1" parent="1" source="kwlAMlTlPHPSavqxf0X7-51" target="kwlAMlTlPHPSavqxf0X7-50">
          <mxGeometry width="50" height="50" relative="1" as="geometry">
            <mxPoint x="1048" y="300" as="sourcePoint" />
            <mxPoint x="858" y="370" as="targetPoint" />
          </mxGeometry>
        </mxCell>
        <mxCell id="kwlAMlTlPHPSavqxf0X7-63" style="edgeStyle=orthogonalEdgeStyle;rounded=0;orthogonalLoop=1;jettySize=auto;html=1;entryX=0;entryY=0.5;entryDx=0;entryDy=0;exitX=1;exitY=0.5;exitDx=0;exitDy=0;" edge="1" parent="1" source="kwlAMlTlPHPSavqxf0X7-62" target="kwlAMlTlPHPSavqxf0X7-50">
          <mxGeometry relative="1" as="geometry">
            <mxPoint x="810" y="300" as="sourcePoint" />
          </mxGeometry>
        </mxCell>
        <mxCell id="kwlAMlTlPHPSavqxf0X7-64" style="edgeStyle=orthogonalEdgeStyle;rounded=0;orthogonalLoop=1;jettySize=auto;html=1;entryX=1;entryY=0.5;entryDx=0;entryDy=0;" edge="1" parent="1" source="kwlAMlTlPHPSavqxf0X7-62" target="kwlAMlTlPHPSavqxf0X7-38">
          <mxGeometry relative="1" as="geometry" />
        </mxCell>
        <mxCell id="kwlAMlTlPHPSavqxf0X7-62" value="Tiene" style="shape=rhombus;double=1;perimeter=rhombusPerimeter;whiteSpace=wrap;html=1;align=center;" vertex="1" parent="1">
          <mxGeometry x="670" y="270" width="120" height="60" as="geometry" />
        </mxCell>
        <mxCell id="kwlAMlTlPHPSavqxf0X7-65" value="0:N" style="text;strokeColor=none;fillColor=none;spacingLeft=4;spacingRight=4;overflow=hidden;rotatable=0;points=[[0,0.5],[1,0.5]];portConstraint=eastwest;fontSize=12;whiteSpace=wrap;html=1;" vertex="1" parent="1">
          <mxGeometry x="820" y="270" width="40" height="30" as="geometry" />
        </mxCell>
        <mxCell id="kwlAMlTlPHPSavqxf0X7-66" value="1:1" style="text;strokeColor=none;fillColor=none;spacingLeft=4;spacingRight=4;overflow=hidden;rotatable=0;points=[[0,0.5],[1,0.5]];portConstraint=eastwest;fontSize=12;whiteSpace=wrap;html=1;" vertex="1" parent="1">
          <mxGeometry x="610" y="269" width="40" height="30" as="geometry" />
        </mxCell>
        <mxCell id="kwlAMlTlPHPSavqxf0X7-67" value="1:N" style="text;strokeColor=none;fillColor=none;spacingLeft=4;spacingRight=4;overflow=hidden;rotatable=0;points=[[0,0.5],[1,0.5]];portConstraint=eastwest;fontSize=12;whiteSpace=wrap;html=1;" vertex="1" parent="1">
          <mxGeometry x="710" y="240" width="40" height="30" as="geometry" />
        </mxCell>
        <mxCell id="kwlAMlTlPHPSavqxf0X7-68" value="Partida" style="rounded=1;arcSize=10;whiteSpace=wrap;html=1;align=center;" vertex="1" parent="1">
          <mxGeometry x="500" y="620" width="100" height="40" as="geometry" />
        </mxCell>
        <mxCell id="kwlAMlTlPHPSavqxf0X7-72" style="edgeStyle=orthogonalEdgeStyle;rounded=0;orthogonalLoop=1;jettySize=auto;html=1;entryX=0;entryY=0.5;entryDx=0;entryDy=0;endArrow=classic;endFill=1;" edge="1" parent="1" source="kwlAMlTlPHPSavqxf0X7-70" target="kwlAMlTlPHPSavqxf0X7-68">
          <mxGeometry relative="1" as="geometry" />
        </mxCell>
        <mxCell id="kwlAMlTlPHPSavqxf0X7-70" value="Juega" style="shape=rhombus;double=1;perimeter=rhombusPerimeter;whiteSpace=wrap;html=1;align=center;" vertex="1" parent="1">
          <mxGeometry x="310" y="610" width="120" height="60" as="geometry" />
        </mxCell>
        <mxCell id="kwlAMlTlPHPSavqxf0X7-73" style="edgeStyle=orthogonalEdgeStyle;rounded=0;orthogonalLoop=1;jettySize=auto;html=1;entryX=0.59;entryY=0.95;entryDx=0;entryDy=0;entryPerimeter=0;endArrow=none;endFill=0;" edge="1" parent="1" source="kwlAMlTlPHPSavqxf0X7-70" target="kwlAMlTlPHPSavqxf0X7-5">
          <mxGeometry relative="1" as="geometry" />
        </mxCell>
        <mxCell id="kwlAMlTlPHPSavqxf0X7-74" value="1:N" style="text;strokeColor=none;fillColor=none;spacingLeft=4;spacingRight=4;overflow=hidden;rotatable=0;points=[[0,0.5],[1,0.5]];portConstraint=eastwest;fontSize=12;whiteSpace=wrap;html=1;" vertex="1" parent="1">
          <mxGeometry x="460" y="610" width="40" height="30" as="geometry" />
        </mxCell>
        <mxCell id="kwlAMlTlPHPSavqxf0X7-75" value="1:1" style="text;strokeColor=none;fillColor=none;spacingLeft=4;spacingRight=4;overflow=hidden;rotatable=0;points=[[0,0.5],[1,0.5]];portConstraint=eastwest;fontSize=12;whiteSpace=wrap;html=1;" vertex="1" parent="1">
          <mxGeometry x="250" y="610" width="40" height="30" as="geometry" />
        </mxCell>
        <mxCell id="kwlAMlTlPHPSavqxf0X7-76" value="1:N" style="text;strokeColor=none;fillColor=none;spacingLeft=4;spacingRight=4;overflow=hidden;rotatable=0;points=[[0,0.5],[1,0.5]];portConstraint=eastwest;fontSize=12;whiteSpace=wrap;html=1;" vertex="1" parent="1">
          <mxGeometry x="360" y="580" width="40" height="30" as="geometry" />
        </mxCell>
        <mxCell id="kwlAMlTlPHPSavqxf0X7-81" style="edgeStyle=orthogonalEdgeStyle;rounded=0;orthogonalLoop=1;jettySize=auto;html=1;entryX=1;entryY=0.5;entryDx=0;entryDy=0;" edge="1" parent="1" source="kwlAMlTlPHPSavqxf0X7-79" target="kwlAMlTlPHPSavqxf0X7-68">
          <mxGeometry relative="1" as="geometry" />
        </mxCell>
        <mxCell id="kwlAMlTlPHPSavqxf0X7-82" style="edgeStyle=orthogonalEdgeStyle;rounded=0;orthogonalLoop=1;jettySize=auto;html=1;entryX=0.5;entryY=0;entryDx=0;entryDy=0;endArrow=none;endFill=0;" edge="1" parent="1" source="kwlAMlTlPHPSavqxf0X7-79" target="kwlAMlTlPHPSavqxf0X7-80">
          <mxGeometry relative="1" as="geometry" />
        </mxCell>
        <mxCell id="kwlAMlTlPHPSavqxf0X7-79" value="Contiene" style="shape=rhombus;double=1;perimeter=rhombusPerimeter;whiteSpace=wrap;html=1;align=center;" vertex="1" parent="1">
          <mxGeometry x="650" y="610" width="120" height="60" as="geometry" />
        </mxCell>
        <mxCell id="kwlAMlTlPHPSavqxf0X7-80" value="Palabra" style="rounded=1;arcSize=10;whiteSpace=wrap;html=1;align=center;" vertex="1" parent="1">
          <mxGeometry x="660" y="730" width="100" height="40" as="geometry" />
        </mxCell>
        <mxCell id="kwlAMlTlPHPSavqxf0X7-83" value="1:1" style="text;strokeColor=none;fillColor=none;spacingLeft=4;spacingRight=4;overflow=hidden;rotatable=0;points=[[0,0.5],[1,0.5]];portConstraint=eastwest;fontSize=12;whiteSpace=wrap;html=1;" vertex="1" parent="1">
          <mxGeometry x="720" y="700" width="40" height="30" as="geometry" />
        </mxCell>
        <mxCell id="kwlAMlTlPHPSavqxf0X7-84" value="1:N" style="text;strokeColor=none;fillColor=none;spacingLeft=4;spacingRight=4;overflow=hidden;rotatable=0;points=[[0,0.5],[1,0.5]];portConstraint=eastwest;fontSize=12;whiteSpace=wrap;html=1;" vertex="1" parent="1">
          <mxGeometry x="600" y="610" width="40" height="30" as="geometry" />
        </mxCell>
        <mxCell id="kwlAMlTlPHPSavqxf0X7-85" value="1:N" style="text;strokeColor=none;fillColor=none;spacingLeft=4;spacingRight=4;overflow=hidden;rotatable=0;points=[[0,0.5],[1,0.5]];portConstraint=eastwest;fontSize=12;whiteSpace=wrap;html=1;" vertex="1" parent="1">
          <mxGeometry x="700" y="585" width="40" height="30" as="geometry" />
        </mxCell>
      </root>
    </mxGraphModel>
  </diagram>
</mxfile>
